<svg width="7530" height="6157" viewBox="0 0 7530 6157" fill="none" xmlns="http://www.w3.org/2000/svg">
<rect x="1138.98" y="282" width="747.874" height="5874.21" fill="#5658DD"/>
<rect y="2.08594" width="2787.48" height="571.738" fill="#5658DD"/>
<rect x="3043.78" y="5.07031" width="3073.51" height="571.738" fill="#5658DD"/>
<rect x="3833.69" y="1113.8" width="1754.1" height="571.738" fill="#5658DD"/>
<rect x="3970.55" y="4468.3" width="1754.1" height="571.738" fill="#5658DD"/>
<path d="M4772.25 3304.47H7530L7178.36 3876.21H4772.25V3304.47Z" fill="#5658DD"/>
<rect width="1650.78" height="586.538" transform="matrix(0.4746 0.880202 -0.892469 0.451109 6111.47 17.5859)" fill="#5658DD"/>
<path d="M5772.68 5898.66L6954.87 3381.19L7514.68 3381.19L6316.46 6121.55L5772.68 5898.66Z" fill="#5658DD"/>
<rect x="3192.43" y="5554.7" width="3073.51" height="571.738" fill="#5658DD"/>
<rect width="3314.38" height="587.51" transform="matrix(0.413329 0.910582 -0.920159 0.391545 2380.3 2907.93)" fill="#5658DD"/>
<rect width="2154.01" height="587.51" transform="matrix(0.413329 0.910582 -0.920159 0.391545 3639.42 2863.14)" fill="#5658DD"/>
<rect width="3327.03" height="588.132" transform="matrix(0.36849 -0.929632 0.937378 0.348315 1839.69 3092.91)" fill="#5658DD"/>
<rect width="2151.63" height="588.132" transform="matrix(0.36849 -0.929632 0.937378 0.348315 3065.31 3092.69)" fill="#5658DD"/>
</svg>
