<svg width="27072" height="16494" viewBox="0 0 27072 16494" fill="none" xmlns="http://www.w3.org/2000/svg">
<rect x="6301" y="568.211" width="1459" height="11836" fill="#5658DD"/>
<rect x="4079" y="4.21094" width="5438" height="1152" fill="#5658DD"/>
<rect x="10017" y="10.2109" width="5996" height="1152" fill="#5658DD"/>
<rect x="11558" y="2244.21" width="3422" height="1152" fill="#5658DD"/>
<rect x="11825" y="9003.21" width="3422" height="1152" fill="#5658DD"/>
<path d="M13389 6658.21H18769L18083 7810.21H13389V6658.21Z" fill="#5658DD"/>
<rect x="16001.6" y="35.4297" width="3302.66" height="1152" transform="rotate(62.4329 16001.6 35.4297)" fill="#5658DD"/>
<path d="M15340.7 11885.3L17647 6812.79L18739.1 6812.79L16401.6 12334.4L15340.7 11885.3Z" fill="#5658DD"/>
<rect x="10307" y="11192.2" width="5996" height="1152" fill="#5658DD"/>
<rect x="8722.64" y="5859.21" width="6642.39" height="1152" transform="rotate(66.2751 8722.64 5859.21)" fill="#5658DD"/>
<rect x="11179" y="5768.98" width="4316.89" height="1152" transform="rotate(66.2751 11179 5768.98)" fill="#5658DD"/>
<rect x="7667.98" y="6231.94" width="6675.13" height="1152" transform="rotate(-69.004 7667.98 6231.94)" fill="#5658DD"/>
<rect x="10059" y="6231.48" width="4316.89" height="1152" transform="rotate(-69.004 10059 6231.48)" fill="#5658DD"/>
<path d="M29.2969 13757.4H1367.19V13985.9H869.141C858.724 14177.3 852.214 14368.7 849.609 14560.1C847.005 14751.5 845.703 14930.6 845.703 15097.2C845.703 15197.5 846.354 15303 847.656 15413.7C848.958 15524.3 850.911 15637.6 853.516 15753.5C856.12 15868.1 859.375 15984 863.281 16101.2C867.188 16217 872.396 16330.3 878.906 16441H513.672C521.484 16330.3 527.344 16217 531.25 16101.2C536.458 15984 540.365 15868.1 542.969 15753.5C545.573 15637.6 547.526 15524.3 548.828 15413.7C550.13 15303 550.781 15197.5 550.781 15097.2C550.781 14930.6 548.828 14751.5 544.922 14560.1C542.318 14368.7 536.458 14177.3 527.344 13985.9H29.2969V13757.4ZM3062.5 13757.4C3055.99 13868.1 3050.13 13981.4 3044.92 14097.2C3041.02 14213.1 3037.76 14328.4 3035.16 14443C3032.55 14557.5 3030.6 14670.2 3029.3 14780.8C3027.99 14891.5 3027.34 14997 3027.34 15097.2C3027.34 15197.5 3027.99 15303 3029.3 15413.7C3030.6 15524.3 3031.9 15637.6 3033.2 15753.5C3035.81 15868.1 3039.06 15984 3042.97 16101.2C3046.88 16217 3052.08 16330.3 3058.59 16441H2695.31C2701.82 16330.3 2707.03 16217 2710.94 16101.2C2716.15 15984 2720.05 15868.1 2722.66 15753.5C2725.26 15637.6 2727.21 15524.3 2728.52 15413.7C2729.82 15303 2730.47 15197.5 2730.47 15097.2H1925.78C1925.78 15197.5 1926.43 15303 1927.73 15413.7C1929.04 15524.3 1930.99 15637.6 1933.59 15753.5C1936.2 15868.1 1939.45 15984 1943.36 16101.2C1947.27 16217 1952.47 16330.3 1958.98 16441H1593.75C1601.56 16330.3 1607.42 16217 1611.33 16101.2C1616.54 15984 1620.44 15868.1 1623.05 15753.5C1625.65 15637.6 1627.6 15524.3 1628.91 15413.7C1630.21 15303 1630.86 15197.5 1630.86 15097.2C1630.86 14997 1630.21 14891.5 1628.91 14780.8C1627.6 14670.2 1625.65 14557.5 1623.05 14443C1620.44 14328.4 1616.54 14213.1 1611.33 14097.2C1607.42 13981.4 1601.56 13868.1 1593.75 13757.4H1962.89C1949.87 13939.7 1940.76 14126.5 1935.55 14318C1931.64 14508.1 1928.39 14691.7 1925.78 14868.7H2728.52C2727.21 14691.7 2723.96 14508.1 2718.75 14318C2713.54 14126.5 2705.73 13939.7 2695.31 13757.4H3062.5ZM4589.84 13757.4V13985.9H3812.5C3804.69 14135.7 3798.83 14285.4 3794.92 14435.1C3792.32 14583.6 3790.36 14728.1 3789.06 14868.7H4533.2V15097.2H3789.06C3789.06 15265.2 3790.36 15445.6 3792.97 15638.3C3795.57 15829.7 3801.43 16021.1 3810.55 16212.5H4601.56V16441H3457.03C3464.84 16330.3 3470.7 16217 3474.61 16101.2C3479.82 15984 3483.72 15868.1 3486.33 15753.5C3488.93 15637.6 3490.89 15524.3 3492.19 15413.7C3493.49 15303 3494.14 15197.5 3494.14 15097.2C3494.14 14997 3493.49 14891.5 3492.19 14780.8C3490.89 14670.2 3488.93 14557.5 3486.33 14443C3483.72 14328.4 3479.82 14213.1 3474.61 14097.2C3470.7 13981.4 3464.84 13868.1 3457.03 13757.4H4589.84ZM13546.9 15120.7H14257.8C14252.6 15227.5 14248.7 15332.3 14246.1 15435.1C14244.8 15538 14244.1 15636.3 14244.1 15730.1C14244.1 15823.8 14244.1 15909.8 14244.1 15987.9C14245.4 16064.7 14247.4 16131.1 14250 16187.1C14252.6 16253.5 14255.2 16312.7 14257.8 16364.8C14191.4 16398.7 14110.7 16427.3 14015.6 16450.8C13920.6 16474.2 13805.3 16485.9 13669.9 16485.9C13534.5 16485.9 13408.9 16457.9 13293 16401.9C13177.1 16345.9 13076.2 16261.3 12990.2 16148C12904.3 16033.4 12836.6 15889.6 12787.1 15716.4C12738.9 15541.9 12714.8 15336.8 12714.8 15101.2C12714.8 14865.5 12740.2 14661.1 12791 14487.9C12843.1 14313.4 12913.4 14169.5 13002 14056.2C13090.5 13941.7 13193.4 13856.4 13310.5 13800.4C13429 13744.4 13554.7 13716.4 13687.5 13716.4C13742.2 13716.4 13791.7 13719 13835.9 13724.2C13880.2 13728.1 13921.2 13734 13959 13741.8C13998 13749.6 14034.5 13759.4 14068.4 13771.1C14102.2 13782.8 14135.4 13795.2 14168 13808.2V14202.7C14083.3 14107.7 14003.3 14041.3 13927.7 14003.5C13853.5 13964.4 13772.8 13944.9 13685.5 13944.9C13585.3 13944.9 13496.1 13972.9 13418 14028.9C13339.8 14083.6 13273.4 14161.7 13218.8 14263.3C13165.4 14364.8 13124.3 14486.6 13095.7 14628.5C13068.4 14769.1 13054.7 14925.4 13054.7 15097.2C13054.7 15263.9 13067.7 15418.2 13093.8 15560.1C13119.8 15700.8 13158.9 15823.2 13210.9 15927.3C13263 16030.2 13328.1 16110.9 13406.2 16169.5C13485.7 16228.1 13578.1 16257.4 13683.6 16257.4C13729.2 16257.4 13768.9 16254.2 13802.7 16247.6C13837.9 16239.8 13872.4 16226.8 13906.2 16208.6C13907.6 16179.9 13908.9 16146.7 13910.2 16109C13911.5 16076.4 13912.8 16037.4 13914.1 15991.8C13915.4 15944.9 13916 15890.9 13916 15829.7C13916 15763.3 13914.7 15689.7 13912.1 15609C13910.8 15528.2 13907.6 15441 13902.3 15347.2H13546.9V15120.7ZM15261.7 13757.4C15481.8 13757.4 15651.7 13821.9 15771.5 13950.8C15892.6 14079.7 15953.1 14275 15953.1 14536.7C15953.1 14706 15923.8 14845.9 15865.2 14956.6C15806.6 15066 15720.1 15150 15605.5 15208.6C15634.1 15320.6 15669.9 15442.3 15712.9 15573.8C15750.7 15687.1 15797.5 15818 15853.5 15966.4C15910.8 16114.8 15980.5 16273 16062.5 16441H15650.4C15591.8 16247 15543 16078.4 15503.9 15935.1C15466.1 15790.6 15436.2 15669.5 15414.1 15571.9C15388 15458.6 15367.8 15361.6 15353.5 15280.8H14957C14957 15372 14957.7 15466.4 14959 15564C14961.6 15660.4 14964.2 15758.1 14966.8 15857C14969.4 15954.7 14972.7 16053 14976.6 16151.9C14980.5 16250.9 14985 16347.2 14990.2 16441H14625C14632.8 16330.3 14638.7 16217 14642.6 16101.2C14647.8 15984 14651.7 15868.1 14654.3 15753.5C14656.9 15637.6 14658.9 15524.3 14660.2 15413.7C14661.5 15303 14662.1 15197.5 14662.1 15097.2C14662.1 14997 14661.5 14891.5 14660.2 14780.8C14658.9 14670.2 14656.9 14557.5 14654.3 14443C14651.7 14328.4 14647.8 14213.1 14642.6 14097.2C14638.7 13981.4 14632.8 13868.1 14625 13757.4H15261.7ZM14980.5 13976.2C14971.4 14162.4 14964.8 14349.2 14960.9 14536.7C14958.3 14722.9 14957 14898.7 14957 15064H15242.2C15300.8 15064 15352.9 15054.9 15398.4 15036.7C15444 15018.5 15482.4 14988.5 15513.7 14946.9C15546.2 14905.2 15571 14851.2 15587.9 14784.8C15604.8 14717 15613.3 14634.4 15613.3 14536.7C15613.3 14338.8 15582 14196.2 15519.5 14109C15458.3 14020.4 15365.9 13976.2 15242.2 13976.2H14980.5ZM17906.2 15101.2C17906.2 15342 17884.8 15550.4 17841.8 15726.2C17798.8 15900.6 17738.9 16045.2 17662.1 16159.8C17586.6 16273 17497.4 16357 17394.5 16411.7C17291.7 16466.4 17181 16493.7 17062.5 16493.7C16942.7 16493.7 16831.4 16466.4 16728.5 16411.7C16625.7 16357 16535.8 16273 16459 16159.8C16383.5 16045.2 16323.6 15900.6 16279.3 15726.2C16236.3 15550.4 16214.8 15342 16214.8 15101.2C16214.8 14861.6 16236.3 14654.5 16279.3 14480.1C16323.6 14304.3 16383.5 14159.1 16459 14044.5C16535.8 13929.9 16625.7 13845.3 16728.5 13790.6C16831.4 13735.9 16942.7 13708.6 17062.5 13708.6C17181 13708.6 17291.7 13735.9 17394.5 13790.6C17497.4 13845.3 17586.6 13929.9 17662.1 14044.5C17738.9 14159.1 17798.8 14304.3 17841.8 14480.1C17884.8 14654.5 17906.2 14861.6 17906.2 15101.2ZM17570.3 15101.2C17570.3 14900.6 17557.3 14727.5 17531.2 14581.6C17505.2 14435.8 17469.4 14316 17423.8 14222.2C17378.3 14127.2 17324.2 14057.5 17261.7 14013.3C17200.5 13967.7 17134.1 13944.9 17062.5 13944.9C16989.6 13944.9 16921.9 13967.7 16859.4 14013.3C16798.2 14057.5 16744.1 14127.2 16697.3 14222.2C16651.7 14316 16615.9 14435.8 16589.8 14581.6C16563.8 14727.5 16550.8 14900.6 16550.8 15101.2C16550.8 15303 16563.8 15476.8 16589.8 15622.6C16615.9 15768.5 16651.7 15888.3 16697.3 15982C16744.1 16075.8 16798.2 16145.4 16859.4 16191C16921.9 16235.3 16989.6 16257.4 17062.5 16257.4C17134.1 16257.4 17200.5 16235.3 17261.7 16191C17324.2 16145.4 17378.3 16075.8 17423.8 15982C17469.4 15888.3 17505.2 15768.5 17531.2 15622.6C17557.3 15476.8 17570.3 15303 17570.3 15101.2ZM19291 14247.6C19275.4 14362.2 19258.5 14487.2 19240.2 14622.6C19223.3 14756.8 19205.7 14894.1 19187.5 15034.8C19169.3 15174.1 19151 15313.4 19132.8 15452.7C19114.6 15590.7 19097.7 15722.2 19082 15847.2C19066.4 15970.9 19052.1 16084.2 19039.1 16187.1C19027.3 16288.7 19018.2 16373.3 19011.7 16441H18548.8C18534.5 16343.3 18517.6 16231.4 18498 16105.1C18479.8 15978.8 18459 15842.7 18435.5 15696.9C18413.4 15549.7 18388.7 15396.1 18361.3 15235.9C18334 15074.5 18304.7 14911.1 18273.4 14745.7C18243.5 14579 18211.6 14412.4 18177.7 14245.7C18143.9 14079 18109.4 13916.3 18074.2 13757.4H18451.2C18500.7 14148 18550.8 14532.8 18601.6 14911.7C18653.6 15289.3 18710.3 15667.6 18771.5 16046.5H18798.8C18828.8 15857.7 18856.8 15668.9 18882.8 15480.1C18910.2 15291.3 18935.5 15101.8 18959 14911.7C18983.7 14720.3 19007.8 14528.9 19031.2 14337.5C19054.7 14144.8 19078.8 13951.4 19103.5 13757.4H19505.9C19554 14146.7 19600.9 14531.5 19646.5 14911.7C19693.4 15291.9 19747.4 15670.2 19808.6 16046.5H19835.9C19897.1 15667.6 19953.8 15289.3 20005.9 14911.7C20057.9 14532.8 20108.7 14148 20158.2 13757.4H20535.2C20500 13916.3 20465.5 14079 20431.6 14245.7C20397.8 14412.4 20365.2 14579 20334 14745.7C20304 14911.1 20275.4 15074.5 20248 15235.9C20220.7 15396.1 20195.3 15549.7 20171.9 15696.9C20149.7 15842.7 20128.9 15978.8 20109.4 16105.1C20089.8 16231.4 20073.6 16343.3 20060.5 16441H19597.7C19591.1 16373.3 19581.4 16288.7 19568.4 16187.1C19556.6 16084.2 19543 15970.9 19527.3 15847.2C19511.7 15722.2 19494.8 15590.7 19476.6 15452.7C19458.3 15313.4 19440.1 15174.1 19421.9 15034.8C19403.6 14894.1 19385.4 14756.8 19367.2 14622.6C19349 14487.2 19332.7 14362.2 19318.4 14247.6H19291ZM20599.6 13757.4H21937.5V13985.9H21439.5C21429 14177.3 21422.5 14368.7 21419.9 14560.1C21417.3 14751.5 21416 14930.6 21416 15097.2C21416 15197.5 21416.7 15303 21418 15413.7C21419.3 15524.3 21421.2 15637.6 21423.8 15753.5C21426.4 15868.1 21429.7 15984 21433.6 16101.2C21437.5 16217 21442.7 16330.3 21449.2 16441H21084C21091.8 16330.3 21097.7 16217 21101.6 16101.2C21106.8 15984 21110.7 15868.1 21113.3 15753.5C21115.9 15637.6 21117.8 15524.3 21119.1 15413.7C21120.4 15303 21121.1 15197.5 21121.1 15097.2C21121.1 14930.6 21119.1 14751.5 21115.2 14560.1C21112.6 14368.7 21106.8 14177.3 21097.7 13985.9H20599.6V13757.4ZM23632.8 13757.4C23626.3 13868.1 23620.4 13981.4 23615.2 14097.2C23611.3 14213.1 23608.1 14328.4 23605.5 14443C23602.9 14557.5 23600.9 14670.2 23599.6 14780.8C23598.3 14891.5 23597.7 14997 23597.7 15097.2C23597.7 15197.5 23598.3 15303 23599.6 15413.7C23600.9 15524.3 23602.2 15637.6 23603.5 15753.5C23606.1 15868.1 23609.4 15984 23613.3 16101.2C23617.2 16217 23622.4 16330.3 23628.9 16441H23265.6C23272.1 16330.3 23277.3 16217 23281.2 16101.2C23286.5 15984 23290.4 15868.1 23293 15753.5C23295.6 15637.6 23297.5 15524.3 23298.8 15413.7C23300.1 15303 23300.8 15197.5 23300.8 15097.2H22496.1C22496.1 15197.5 22496.7 15303 22498 15413.7C22499.3 15524.3 22501.3 15637.6 22503.9 15753.5C22506.5 15868.1 22509.8 15984 22513.7 16101.2C22517.6 16217 22522.8 16330.3 22529.3 16441H22164.1C22171.9 16330.3 22177.7 16217 22181.6 16101.2C22186.8 15984 22190.8 15868.1 22193.4 15753.5C22196 15637.6 22197.9 15524.3 22199.2 15413.7C22200.5 15303 22201.2 15197.5 22201.2 15097.2C22201.2 14997 22200.5 14891.5 22199.2 14780.8C22197.9 14670.2 22196 14557.5 22193.4 14443C22190.8 14328.4 22186.8 14213.1 22181.6 14097.2C22177.7 13981.4 22171.9 13868.1 22164.1 13757.4H22533.2C22520.2 13939.7 22511.1 14126.5 22505.9 14318C22502 14508.1 22498.7 14691.7 22496.1 14868.7H23298.8C23297.5 14691.7 23294.3 14508.1 23289.1 14318C23283.9 14126.5 23276 13939.7 23265.6 13757.4H23632.8Z" fill="#5658DD"/>
<path d="M6007.81 15101.2C6007.81 15288.7 6022.79 15454.7 6052.73 15599.2C6082.68 15742.4 6125 15862.9 6179.69 15960.5C6235.68 16058.2 6302.08 16132.4 6378.91 16183.2C6457.03 16232.7 6543.62 16257.4 6638.67 16257.4C6695.96 16257.4 6746.74 16250.2 6791.02 16235.9C6835.29 16221.6 6875 16204 6910.16 16183.2C6946.61 16161.1 6980.47 16137 7011.72 16110.9C7042.97 16083.6 7073.57 16057.5 7103.52 16032.8V16425.4C7030.6 16443.6 6957.03 16457.9 6882.81 16468.3C6809.9 16480.1 6728.52 16485.9 6638.67 16485.9C6499.35 16485.9 6370.44 16457.9 6251.95 16401.9C6133.46 16345.9 6030.6 16261.3 5943.36 16148C5857.42 16033.4 5789.71 15889.6 5740.23 15716.4C5692.06 15541.9 5667.97 15336.8 5667.97 15101.2C5667.97 14865.5 5693.36 14661.1 5744.14 14487.9C5796.22 14313.4 5865.89 14169.5 5953.12 14056.2C6041.67 13941.7 6144.53 13856.4 6261.72 13800.4C6380.21 13744.4 6505.86 13716.4 6638.67 13716.4C6728.52 13716.4 6809.9 13722.2 6882.81 13734C6957.03 13744.4 7030.6 13758.7 7103.52 13776.9V14169.5C7073.57 14144.8 7042.97 14119.4 7011.72 14093.3C6980.47 14066 6946.61 14041.9 6910.16 14021.1C6875 13998.9 6835.29 13980.7 6791.02 13966.4C6746.74 13952.1 6695.96 13944.9 6638.67 13944.9C6543.62 13944.9 6457.03 13970.3 6378.91 14021.1C6302.08 14070.6 6235.68 14144.1 6179.69 14241.8C6125 14339.4 6082.68 14460.5 6052.73 14605.1C6022.79 14748.3 6007.81 14913.7 6007.81 15101.2ZM9023.44 15101.2C9023.44 15342 9001.95 15550.4 8958.98 15726.2C8916.02 15900.6 8856.12 16045.2 8779.3 16159.8C8703.78 16273 8614.58 16357 8511.72 16411.7C8408.85 16466.4 8298.18 16493.7 8179.69 16493.7C8059.9 16493.7 7948.57 16466.4 7845.7 16411.7C7742.84 16357 7652.99 16273 7576.17 16159.8C7500.65 16045.2 7440.76 15900.6 7396.48 15726.2C7353.52 15550.4 7332.03 15342 7332.03 15101.2C7332.03 14861.6 7353.52 14654.5 7396.48 14480.1C7440.76 14304.3 7500.65 14159.1 7576.17 14044.5C7652.99 13929.9 7742.84 13845.3 7845.7 13790.6C7948.57 13735.9 8059.9 13708.6 8179.69 13708.6C8298.18 13708.6 8408.85 13735.9 8511.72 13790.6C8614.58 13845.3 8703.78 13929.9 8779.3 14044.5C8856.12 14159.1 8916.02 14304.3 8958.98 14480.1C9001.95 14654.5 9023.44 14861.6 9023.44 15101.2ZM8687.5 15101.2C8687.5 14900.6 8674.48 14727.5 8648.44 14581.6C8622.4 14435.8 8586.59 14316 8541.02 14222.2C8495.44 14127.2 8441.41 14057.5 8378.91 14013.3C8317.71 13967.7 8251.3 13944.9 8179.69 13944.9C8106.77 13944.9 8039.06 13967.7 7976.56 14013.3C7915.36 14057.5 7861.33 14127.2 7814.45 14222.2C7768.88 14316 7733.07 14435.8 7707.03 14581.6C7680.99 14727.5 7667.97 14900.6 7667.97 15101.2C7667.97 15303 7680.99 15476.8 7707.03 15622.6C7733.07 15768.5 7768.88 15888.3 7814.45 15982C7861.33 16075.8 7915.36 16145.4 7976.56 16191C8039.06 16235.3 8106.77 16257.4 8179.69 16257.4C8251.3 16257.4 8317.71 16235.3 8378.91 16191C8441.41 16145.4 8495.44 16075.8 8541.02 15982C8586.59 15888.3 8622.4 15768.5 8648.44 15622.6C8674.48 15476.8 8687.5 15303 8687.5 15101.2ZM9732.42 13757.4C9724.61 13868.1 9718.1 13981.4 9712.89 14097.2C9708.98 14213.1 9705.73 14328.4 9703.12 14443C9700.52 14557.5 9698.57 14670.2 9697.27 14780.8C9695.96 14891.5 9695.31 14997 9695.31 15097.2C9695.31 15197.5 9695.96 15303 9697.27 15413.7C9698.57 15524.3 9700.52 15637.6 9703.12 15753.5C9705.73 15868.1 9708.98 15984 9712.89 16101.2C9716.8 16217 9722.01 16330.3 9728.52 16441H9363.28C9371.09 16330.3 9376.95 16217 9380.86 16101.2C9386.07 15984 9389.97 15868.1 9392.58 15753.5C9395.18 15637.6 9397.14 15524.3 9398.44 15413.7C9399.74 15303 9400.39 15197.5 9400.39 15097.2C9400.39 14997 9399.74 14891.5 9398.44 14780.8C9397.14 14670.2 9395.18 14557.5 9392.58 14443C9389.97 14328.4 9386.07 14213.1 9380.86 14097.2C9376.95 13981.4 9371.09 13868.1 9363.28 13757.4H9732.42ZM11603.5 13757.4C11595.7 13868.1 11589.2 13981.4 11584 14097.2C11580.1 14213.1 11576.8 14328.4 11574.2 14443C11571.6 14557.5 11569.7 14670.2 11568.4 14780.8C11567.1 14891.5 11566.4 14997 11566.4 15097.2C11566.4 15197.5 11567.1 15303 11568.4 15413.7C11569.7 15524.3 11571.6 15637.6 11574.2 15753.5C11576.8 15868.1 11580.1 15984 11584 16101.2C11587.9 16217 11593.1 16330.3 11599.6 16441H11238.3C11171.9 16249.6 11106.8 16067.3 11043 15894.1C10979.2 15720.9 10915.4 15553.6 10851.6 15392.2C10789.1 15229.4 10726.6 15071.2 10664.1 14917.6C10601.6 14762.6 10539.1 14609 10476.6 14456.6H10462.9C10460.3 14569.9 10459 14680.6 10459 14788.7C10460.3 14895.4 10460.9 14998.3 10460.9 15097.2C10460.9 15197.5 10461.6 15303 10462.9 15413.7C10464.2 15524.3 10466.1 15637.6 10468.8 15753.5C10471.4 15868.1 10474.6 15984 10478.5 16101.2C10482.4 16217 10487.6 16330.3 10494.1 16441H10136.7C10144.5 16330.3 10150.4 16217 10154.3 16101.2C10159.5 15984 10163.4 15868.1 10166 15753.5C10168.6 15637.6 10170.6 15524.3 10171.9 15413.7C10173.2 15303 10173.8 15197.5 10173.8 15097.2C10173.8 14997 10173.2 14891.5 10171.9 14780.8C10170.6 14670.2 10168.6 14557.5 10166 14443C10163.4 14328.4 10159.5 14213.1 10154.3 14097.2C10150.4 13981.4 10144.5 13868.1 10136.7 13757.4H10502C10633.5 14140.2 10762.4 14501.5 10888.7 14841.4C11015 15181.2 11141.3 15503.5 11267.6 15808.2H11281.2C11282.6 15750.9 11283.2 15691 11283.2 15628.5C11283.2 15566 11282.6 15504.2 11281.2 15443C11281.2 15380.5 11280.6 15319.9 11279.3 15261.3C11279.3 15202.7 11279.3 15148 11279.3 15097.2C11279.3 14997 11278.6 14891.5 11277.3 14780.8C11276 14670.2 11274.1 14557.5 11271.5 14443C11268.9 14328.4 11265 14213.1 11259.8 14097.2C11255.9 13981.4 11250 13868.1 11242.2 13757.4H11603.5Z" fill="white"/>
</svg>
